<svg width="176" height="84" viewBox="0 0 176 84" fill="none" xmlns="http://www.w3.org/2000/svg">
<path d="M19.3893 57V16.357H32.646C37.0468 16.357 40.8656 17.2298 44.1025 18.9756C47.3394 20.7213 49.8489 23.1217 51.631 26.1768C53.4131 29.2318 54.3041 32.7233 54.3041 36.6512C54.3041 40.5791 53.4131 44.0888 51.631 47.1802C49.8489 50.2353 47.3394 52.6356 44.1025 54.3814C40.8656 56.1271 37.0468 57 32.646 57H19.3893ZM27.8453 49.6352H32.8643C35.5192 49.6352 37.8105 49.1078 39.7381 48.0531C41.6657 46.962 43.1569 45.4526 44.2116 43.5251C45.3027 41.5611 45.8482 39.2698 45.8482 36.6512C45.8482 33.9962 45.3027 31.7049 44.2116 29.7773C43.1569 27.8498 41.6657 26.3586 39.7381 25.3039C37.8105 24.2492 35.5192 23.7218 32.8643 23.7218H27.8453V49.6352ZM59.7191 57V16.357H87.0509V23.7218H68.175V32.9415H85.9598V40.3063H68.175V49.6352H87.0509V57H59.7191ZM102.755 57L88.8439 16.357H98.1182L108.593 48.9805H106.738L117.212 16.357H126.486L112.575 57H102.755Z" fill="white"/>
<path d="M18.6693 79V62.5316H22.0956V69.6495H28.5061V62.5316H31.9324V79H28.5061V72.6337H22.0956V79H18.6693ZM34.8596 79V62.5316H45.9344V65.5158H38.286V69.2516H45.4923V72.2358H38.286V76.0158H45.9344V79H34.8596ZM47.8767 79V62.5316H51.303V76.0158H58.2662V79H47.8767ZM61.6108 79V65.5158H57.4329V62.5316H69.1487V65.5158H65.0371V79H61.6108ZM78.4215 79.2653C77.1836 79.2653 76.0342 79.0516 74.9731 78.6242C73.912 78.1968 72.9836 77.6 72.1878 76.8337C71.4068 76.0526 70.7952 75.1463 70.3531 74.1147C69.911 73.0832 69.6899 71.9632 69.6899 70.7547C69.6899 69.5463 69.9036 68.4263 70.331 67.3947C70.7731 66.3632 71.3847 65.4642 72.1657 64.6979C72.9615 63.9316 73.8899 63.3347 74.951 62.9074C76.012 62.48 77.1689 62.2663 78.4215 62.2663C79.6742 62.2663 80.831 62.48 81.892 62.9074C82.9531 63.3347 83.8742 63.9316 84.6552 64.6979C85.451 65.4642 86.0626 66.3632 86.4899 67.3947C86.932 68.4263 87.1531 69.5463 87.1531 70.7547C87.1531 71.9632 86.932 73.0832 86.4899 74.1147C86.0478 75.1463 85.4289 76.0526 84.6331 76.8337C83.852 77.6 82.931 78.1968 81.8699 78.6242C80.8089 79.0516 79.6594 79.2653 78.4215 79.2653ZM78.4215 76.1705C79.1731 76.1705 79.8657 76.0379 80.4994 75.7726C81.1478 75.5074 81.7152 75.1389 82.2015 74.6674C82.6878 74.1811 83.0636 73.6063 83.3289 72.9432C83.5942 72.28 83.7268 71.5505 83.7268 70.7547C83.7268 69.9589 83.5942 69.2368 83.3289 68.5884C83.0636 67.9253 82.6878 67.3505 82.2015 66.8642C81.7152 66.3779 81.1478 66.0095 80.4994 65.7589C79.8657 65.4937 79.1731 65.3611 78.4215 65.3611C77.6699 65.3611 76.9699 65.4937 76.3215 65.7589C75.6878 66.0095 75.1278 66.3779 74.6415 66.8642C74.1552 67.3505 73.7794 67.9253 73.5142 68.5884C73.2489 69.2368 73.1163 69.9589 73.1163 70.7547C73.1163 71.5505 73.2489 72.28 73.5142 72.9432C73.7794 73.6063 74.1552 74.1811 74.6415 74.6674C75.1278 75.1389 75.6878 75.5074 76.3215 75.7726C76.9699 76.0379 77.6699 76.1705 78.4215 76.1705ZM89.5831 79V62.5316H92.2136L101.056 74.1811L99.641 74.5126V62.5316H103.067V79H100.415L91.7273 67.2621L93.0094 66.9305V79H89.5831ZM109.961 79V62.5316H116.925C118.059 62.5316 119.032 62.7232 119.842 63.1063C120.653 63.4895 121.272 64.0421 121.699 64.7642C122.127 65.4716 122.34 66.3337 122.34 67.3505C122.34 68.0726 122.141 68.7653 121.744 69.4284C121.346 70.0768 120.69 70.6221 119.776 71.0642V69.3842C120.646 69.7232 121.316 70.1284 121.788 70.6C122.259 71.0716 122.584 71.5874 122.76 72.1474C122.937 72.6926 123.026 73.2674 123.026 73.8716C123.026 75.4926 122.488 76.7526 121.412 77.6516C120.336 78.5505 118.84 79 116.925 79H109.961ZM113.388 76.0158H117.322C118.015 76.0158 118.568 75.8168 118.98 75.4189C119.393 75.0211 119.599 74.5053 119.599 73.8716C119.599 73.2232 119.393 72.7 118.98 72.3021C118.568 71.9042 118.015 71.7053 117.322 71.7053H113.388V76.0158ZM113.388 68.7211H117.168C117.698 68.7211 118.118 68.5737 118.428 68.2789C118.752 67.9695 118.914 67.5642 118.914 67.0632C118.914 66.5621 118.752 66.1642 118.428 65.8695C118.118 65.56 117.698 65.4053 117.168 65.4053H113.388V68.7211ZM125.224 79V62.5316H131.524C132.658 62.5316 133.66 62.7305 134.53 63.1284C135.414 63.5263 136.107 64.1158 136.608 64.8968C137.109 65.6779 137.359 66.6432 137.359 67.7926C137.359 68.9126 137.101 69.8705 136.586 70.6663C136.07 71.4474 135.377 72.0368 134.508 72.4347L138.266 79H134.419L130.352 71.7274L132.562 73.0316H128.65V79H125.224ZM128.65 70.0474H131.546C132.032 70.0474 132.452 69.9516 132.806 69.76C133.159 69.5684 133.432 69.3032 133.624 68.9642C133.83 68.6253 133.933 68.2347 133.933 67.7926C133.933 67.3358 133.83 66.9379 133.624 66.5989C133.432 66.26 133.159 65.9947 132.806 65.8032C132.452 65.6116 132.032 65.5158 131.546 65.5158H128.65V70.0474ZM139.968 79V62.5316H143.394V79H139.968ZM149.276 79V65.5158H145.098V62.5316H156.814V65.5158H152.703V79H149.276ZM166.087 79.2653C164.849 79.2653 163.7 79.0516 162.639 78.6242C161.578 78.1968 160.649 77.6 159.853 76.8337C159.072 76.0526 158.461 75.1463 158.019 74.1147C157.576 73.0832 157.355 71.9632 157.355 70.7547C157.355 69.5463 157.569 68.4263 157.996 67.3947C158.439 66.3632 159.05 65.4642 159.831 64.6979C160.627 63.9316 161.555 63.3347 162.616 62.9074C163.678 62.48 164.834 62.2663 166.087 62.2663C167.34 62.2663 168.496 62.48 169.558 62.9074C170.619 63.3347 171.54 63.9316 172.321 64.6979C173.116 65.4642 173.728 66.3632 174.155 67.3947C174.598 68.4263 174.819 69.5463 174.819 70.7547C174.819 71.9632 174.598 73.0832 174.155 74.1147C173.713 75.1463 173.094 76.0526 172.299 76.8337C171.518 77.6 170.596 78.1968 169.535 78.6242C168.474 79.0516 167.325 79.2653 166.087 79.2653ZM166.087 76.1705C166.839 76.1705 167.531 76.0379 168.165 75.7726C168.813 75.5074 169.381 75.1389 169.867 74.6674C170.353 74.1811 170.729 73.6063 170.994 72.9432C171.26 72.28 171.392 71.5505 171.392 70.7547C171.392 69.9589 171.26 69.2368 170.994 68.5884C170.729 67.9253 170.353 67.3505 169.867 66.8642C169.381 66.3779 168.813 66.0095 168.165 65.7589C167.531 65.4937 166.839 65.3611 166.087 65.3611C165.335 65.3611 164.635 65.4937 163.987 65.7589C163.353 66.0095 162.793 66.3779 162.307 66.8642C161.821 67.3505 161.445 67.9253 161.18 68.5884C160.914 69.2368 160.782 69.9589 160.782 70.7547C160.782 71.5505 160.914 72.28 161.18 72.9432C161.445 73.6063 161.821 74.1811 162.307 74.6674C162.793 75.1389 163.353 75.5074 163.987 75.7726C164.635 76.0379 165.335 76.1705 166.087 76.1705Z" fill="white"/>
<circle cx="125.5" cy="53.5" r="3.5" fill="#07E78F"/>
</svg>
